<svg width="447" height="158" viewBox="0 0 447 158" fill="none" xmlns="http://www.w3.org/2000/svg">
<path d="M253.23 107C253.23 111 256.57 113.85 261.11 113.85C264.33 113.85 266.72 112.56 267.88 110.38L265.22 108.84C264.819 109.579 264.216 110.189 263.481 110.598C262.746 111.007 261.91 111.199 261.07 111.15C258.37 111.15 256.32 109.52 256.32 107C256.32 104.48 258.37 102.84 261.07 102.84C261.804 102.803 262.536 102.948 263.201 103.262C263.866 103.576 264.442 104.049 264.88 104.64L267.54 103.1C266.793 102.104 265.812 101.309 264.683 100.786C263.554 100.262 262.312 100.027 261.07 100.1C256.57 100.1 253.23 102.97 253.23 106.96" fill="black"/>
<path d="M272.38 113.61H284.45V110.96H275.46V100.3H272.38V113.61Z" fill="black"/>
<path d="M291.94 100.34H288.86V113.61H291.94V100.34Z" fill="black"/>
<path fill-rule="evenodd" clip-rule="evenodd" d="M300.12 109H305.39C308.52 109 310.57 107.5 310.57 104.67C310.57 101.84 308.52 100.35 305.39 100.35H297V113.62H300.08L300.12 109ZM300.12 106.43V103H305.22C306.67 103 307.53 103.64 307.53 104.71C307.53 105.78 306.72 106.47 305.22 106.47L300.12 106.43Z" fill="black"/>
<path fill-rule="evenodd" clip-rule="evenodd" d="M323.25 109H318V113.62H314.9V100.34H323.25C326.37 100.34 328.43 101.84 328.43 104.66C328.43 107.48 326.37 108.99 323.25 108.99M318 103V106.47H323.1C324.55 106.47 325.41 105.83 325.41 104.71C325.41 103.59 324.59 103 323.1 103H318Z" fill="black"/>
<path d="M332.71 113.61H345.6V110.96H335.75V108.13H344.53V105.52H335.75V102.95H345.6V100.3H332.71V113.61Z" fill="black"/>
<path fill-rule="evenodd" clip-rule="evenodd" d="M357.55 108.9H353.26V113.61H350.18V100.34H358.66C361.74 100.34 363.84 101.84 363.84 104.62C363.869 105.528 363.587 106.42 363.042 107.147C362.497 107.874 361.72 108.393 360.84 108.62L364.14 113.68H360.59L357.55 108.9ZM353.26 102.9V106.33H358.49C359.94 106.33 360.8 105.68 360.8 104.61C360.8 103.54 360 103 358.49 103L353.26 102.9Z" fill="black"/>
<path d="M263.12 87V55.26H286.46C291.97 55.26 295.22 55.33 296.22 55.42C297.754 55.5401 299.205 56.1622 300.35 57.19C301.378 58.1312 302.063 59.3869 302.3 60.76C302.545 62.3443 302.645 63.9476 302.6 65.55C302.686 67.3761 302.507 69.2049 302.07 70.98C301.828 71.7031 301.426 72.3624 300.895 72.9094C300.363 73.4563 299.716 73.8769 299 74.14C298.254 74.3976 297.483 74.5753 296.7 74.67C298.78 74.88 300.23 75.46 301.07 76.42C301.606 77.0356 301.953 77.7924 302.07 78.6C302.242 80.3979 302.309 82.2043 302.27 84.01V87H292.75V85.3C292.787 83.9419 292.704 82.5832 292.5 81.24C292.449 80.7358 292.238 80.2612 291.898 79.8852C291.558 79.5093 291.107 79.2517 290.61 79.15C289.218 78.9644 287.814 78.8941 286.41 78.94H272.78V87H263.12ZM272.78 71H286.37C288.37 71 289.57 70.97 289.97 70.91C291.303 70.83 292.163 70.41 292.55 69.65C292.847 68.7927 292.972 67.8856 292.92 66.98C292.961 66.1632 292.849 65.3459 292.59 64.57C292.369 64.1489 292.03 63.8014 291.614 63.5705C291.199 63.3395 290.724 63.2351 290.25 63.27C289.81 63.27 288.51 63.21 286.35 63.2H272.78V71Z" fill="black"/>
<path d="M217.07 55.26H226.73V69.82C226.691 71.9391 226.808 74.0581 227.08 76.16C227.39 77.66 228.44 78.54 230.24 78.81C232.712 79.1046 235.201 79.2282 237.69 79.18C240.11 79.2286 242.532 79.1284 244.94 78.88C245.834 78.8147 246.674 78.4232 247.299 77.7799C247.924 77.1365 248.291 76.2861 248.33 75.39C248.525 73.5399 248.619 71.6804 248.61 69.82V55.26H258.27V69.82C258.163 74.9 258 78.2333 257.78 79.82C257.649 81.0141 257.238 82.1606 256.581 83.1665C255.925 84.1724 255.04 85.0095 254 85.61C252.41 86.53 249.73 87.08 246 87.28C244.27 87.38 241.56 87.42 237.88 87.42C233.988 87.5094 230.095 87.3691 226.22 87C224.071 86.8446 222.001 86.1235 220.22 84.91C219.055 83.9742 218.223 82.6869 217.85 81.24C217.322 78.8372 217.087 76.3793 217.15 73.92V69.86L217.07 55.26Z" fill="black"/>
<path d="M184 55.26H213V62.71H187.35V67.29H206.35V74.29H187.35V79.37H213.13V87H184C182.377 87 180.82 86.3552 179.672 85.2075C178.525 84.0598 177.88 82.5031 177.88 80.88V61.38C177.88 59.7569 178.525 58.2002 179.672 57.0525C180.82 55.9048 182.377 55.26 184 55.26Z" fill="black"/>
<path d="M328.8 54.79C333.516 54.6999 338.233 54.8701 342.93 55.3C346.623 55.8 348.89 57.56 349.73 60.58C350.303 62.6533 350.59 66.16 350.59 71.1C350.59 76.1 350.3 79.57 349.73 81.64C348.89 84.66 346.623 86.4167 342.93 86.91C338.276 87.3385 333.603 87.5087 328.93 87.42C324.184 87.5112 319.437 87.3409 314.71 86.91C311.01 86.4233 308.743 84.6667 307.91 81.64C307.303 79.5733 307 75.9967 307 70.91C306.872 67.4447 307.161 63.9765 307.86 60.58C308.7 57.56 310.967 55.8 314.66 55.3C319.354 54.8711 324.068 54.7008 328.78 54.79M328.78 63.04C323.67 63.04 320.59 63.17 319.56 63.43C318.994 63.544 318.47 63.8099 318.044 64.1992C317.617 64.5886 317.305 65.0866 317.14 65.64C316.711 67.7076 316.54 69.8203 316.63 71.93C316.587 73.3399 316.688 74.7504 316.93 76.14C317.317 77.7533 318.487 78.6733 320.44 78.9C323.227 79.1421 326.024 79.2355 328.82 79.18C331.573 79.2342 334.327 79.1408 337.07 78.9C339.017 78.6733 340.177 77.7533 340.55 76.14C340.813 74.7697 340.924 73.3746 340.88 71.98C340.906 70.3744 340.842 68.7686 340.69 67.17C340.679 66.5724 340.546 65.9833 340.3 65.4384C340.054 64.8936 339.7 64.4042 339.26 64C338.56 63.51 337.1 63.2 334.87 63.1C334.08 63.1 332.06 63.05 328.87 63.05" fill="black"/>
<path d="M355.28 87V55.26H377C379.776 55.2015 382.553 55.285 385.32 55.51C388.706 55.9634 390.96 57.18 392.08 59.16C392.93 60.65 393.35 63.3 393.35 67.16C393.35 71.02 392.9 73.82 391.98 75.4C391.502 76.1768 390.873 76.8502 390.131 77.3808C389.39 77.9114 388.549 78.2885 387.66 78.49C385.73 78.9721 383.749 79.2139 381.76 79.21H377.1H364.94V87H355.28ZM364.94 71.32H377C379 71.32 380.17 71.32 380.56 71.25C382 71.16 382.91 70.7 383.3 69.88C383.605 69.011 383.731 68.0891 383.67 67.17C383.735 66.2727 383.592 65.3724 383.25 64.54C382.952 64.1307 382.556 63.8032 382.098 63.5882C381.64 63.3731 381.135 63.2774 380.63 63.31C380.19 63.31 378.99 63.25 377 63.22H364.94V71.32Z" fill="black"/>
<path fill-rule="evenodd" clip-rule="evenodd" d="M425.81 81.6301L428.51 86.9801H439.51L426.41 61.5401C425.42 59.4662 423.865 57.7136 421.924 56.4841C419.982 55.2545 417.733 54.5978 415.435 54.5894C413.137 54.5811 410.883 55.2214 408.933 56.4368C406.983 57.6523 405.415 59.3934 404.41 61.4601L391.17 87.0001H402.17L404.86 81.6501L425.81 81.6301ZM415.37 63.1301C415.655 63.1302 415.934 63.2098 416.176 63.36C416.418 63.5102 416.613 63.7249 416.74 63.9801L422.43 74.6901H408.3L414 64.0001C414.119 63.7387 414.312 63.5184 414.556 63.3671C414.8 63.2158 415.083 63.1403 415.37 63.1501" fill="black"/>
<path d="M74.58 88.63C76.5936 88.7477 78.5968 88.2652 80.3359 87.2436C82.075 86.222 83.4719 84.7073 84.3495 82.8913C85.2272 81.0753 85.5461 79.0396 85.266 77.0422C84.9859 75.0447 84.1193 73.1754 82.776 71.6708C81.4327 70.1662 79.6731 69.0941 77.72 68.5903C75.767 68.0865 73.7083 68.1737 71.8048 68.8407C69.9013 69.5077 68.2386 70.7247 67.0272 72.3374C65.8159 73.9501 65.1103 75.886 65 77.9C64.9258 79.2373 65.1162 80.5761 65.5603 81.8396C66.0045 83.1032 66.6936 84.2667 67.5882 85.2635C68.4828 86.2603 69.5653 87.0708 70.7736 87.6484C71.982 88.2261 73.2925 88.5597 74.63 88.63" fill="#000AC4"/>
<path d="M108.57 21.1001L105.62 27.7701C104.509 30.3569 104.3 33.2419 105.025 35.9621C105.75 38.6822 107.369 41.0798 109.62 42.7701L115.52 47.2601L108.76 44.2601C106.187 43.0992 103.298 42.8369 100.558 43.5151C97.8173 44.1934 95.3845 45.7729 93.6498 48.0001L89.2398 53.7801L92.2398 47.1101C93.3542 44.5238 93.5657 41.6378 92.84 38.9167C92.1144 36.1957 90.494 33.7981 88.2398 32.1101L82.3398 27.6201L89.0998 30.6201C91.6708 31.7795 94.5567 32.0421 97.2947 31.3657C100.033 30.6894 102.464 29.1133 104.2 26.8901L108.57 21.1001Z" fill="#000AC4"/>
<path d="M95.92 114.49C96.3169 114.24 96.7762 114.108 97.245 114.108C97.7138 114.108 98.173 114.24 98.57 114.49L123 128.56C123.615 128.922 124.316 129.113 125.03 129.113C125.744 129.113 126.445 128.922 127.06 128.56L141.69 120.14L101.19 96.7899C98.8416 95.4164 96.1705 94.6917 93.45 94.6899H93.19C90.561 94.7554 87.9912 95.4835 85.7186 96.8069C83.4461 98.1302 81.5444 100.006 80.19 102.26C78.7406 104.678 77.9702 107.441 77.96 110.26V156.96L92.59 148.54C93.198 148.177 93.7018 147.663 94.0523 147.048C94.4028 146.433 94.588 145.738 94.59 145.03V116.85C94.5839 116.37 94.7081 115.896 94.9493 115.481C95.1905 115.065 95.5398 114.723 95.96 114.49" fill="#000AC4"/>
<path d="M54.35 42.43C53.9516 42.6803 53.4906 42.8131 53.02 42.8131C52.5495 42.8131 52.0885 42.6803 51.69 42.43L27.23 28.36C26.6149 27.9977 25.914 27.8066 25.2 27.8066C24.4861 27.8066 23.7852 27.9977 23.17 28.36L8.54004 36.78L49 60.09C51.4346 61.4839 54.1947 62.2085 57 62.19C59.6345 62.1591 62.2144 61.4348 64.48 60.09C66.7738 58.7901 68.6794 56.9019 70 54.62C71.4439 52.2001 72.2139 49.4379 72.23 46.62V0L57.68 8.43C57.0721 8.79025 56.5682 9.30221 56.2176 9.91575C55.867 10.5293 55.6818 11.2234 55.68 11.93V40.12C55.6805 40.5821 55.5632 41.0366 55.3392 41.4408C55.1153 41.8449 54.792 42.1854 54.4 42.43" fill="#000AC4"/>
<path d="M98.1899 70.91C96.9234 73.2321 96.2598 75.8349 96.2598 78.48C96.2598 81.1251 96.9234 83.7278 98.1899 86.05C99.5405 88.5314 101.551 90.5907 104 92L144.46 115.44V98.5C144.462 97.7913 144.278 97.0944 143.927 96.4786C143.577 95.8628 143.071 95.3496 142.46 94.99L118.07 80.88C117.654 80.6432 117.308 80.3006 117.068 79.887C116.827 79.4734 116.701 79.0034 116.701 78.525C116.701 78.0465 116.827 77.5766 117.068 77.163C117.308 76.7493 117.654 76.4067 118.07 76.17L142.45 62.1C143.067 61.7436 143.581 61.2324 143.94 60.6169C144.3 60.0014 144.493 59.3028 144.5 58.59V41.74L104 65.1C101.532 66.4344 99.5012 68.4515 98.1499 70.91" fill="#000AC4"/>
<path d="M51.9999 86.0001C53.2664 83.678 53.93 81.0752 53.93 78.4301C53.93 75.785 53.2664 73.1823 51.9999 70.8601C50.6364 68.3987 48.6277 66.3554 46.1899 64.9501L5.75993 41.6101V58.4701C5.75359 59.1783 5.9354 59.8755 6.28679 60.4905C6.63818 61.1054 7.14655 61.616 7.75993 61.9701L32.1499 76.0901C32.5659 76.3254 32.912 76.667 33.1528 77.0799C33.3936 77.4928 33.5205 77.9622 33.5205 78.4401C33.5205 78.9181 33.3936 79.3875 33.1528 79.8003C32.912 80.2132 32.5659 80.5548 32.1499 80.7901L7.76993 94.8601C7.16255 95.2235 6.6593 95.7375 6.30891 96.3524C5.95852 96.9674 5.77286 97.6624 5.76993 98.3701V115.22L46.1799 91.8701C48.6364 90.5037 50.6546 88.4682 51.9999 86.0001Z" fill="#000AC4"/>
<path d="M23.17 128.56C23.7852 128.922 24.4861 129.113 25.2 129.113C25.914 129.113 26.6149 128.922 27.23 128.56L51.57 114.49C51.967 114.24 52.4262 114.108 52.895 114.108C53.3638 114.108 53.8231 114.24 54.22 114.49C54.6288 114.723 54.9699 115.059 55.21 115.464C55.4502 115.869 55.5811 116.329 55.59 116.8V145C55.5819 145.71 55.7629 146.409 56.1144 147.026C56.4658 147.643 56.9752 148.155 57.59 148.51L72.22 156.93V110.23C72.2347 107.409 71.4661 104.64 70 102.23C68.6183 99.9796 66.7101 98.0989 64.44 96.7499C62.0908 95.3794 59.4198 94.6572 56.7 94.6572C53.9803 94.6572 51.3093 95.3794 48.96 96.7499L8.54004 120.05L23.17 128.56Z" fill="#000AC4"/>
<path d="M74.58 88.63C76.5936 88.7477 78.5968 88.2652 80.3359 87.2436C82.075 86.222 83.4719 84.7073 84.3495 82.8913C85.2272 81.0753 85.5461 79.0396 85.266 77.0422C84.9859 75.0447 84.1193 73.1754 82.776 71.6708C81.4327 70.1662 79.6731 69.0941 77.72 68.5903C75.767 68.0865 73.7083 68.1737 71.8048 68.8407C69.9013 69.5077 68.2386 70.7247 67.0272 72.3374C65.8159 73.9501 65.1103 75.886 65 77.9C64.9258 79.2373 65.1162 80.5761 65.5603 81.8396C66.0045 83.1032 66.6936 84.2667 67.5882 85.2635C68.4828 86.2603 69.5653 87.0708 70.7736 87.6484C71.982 88.2261 73.2925 88.5597 74.63 88.63" fill="#000AC4"/>
<path d="M108.57 21.1001L105.62 27.7701C104.509 30.3569 104.3 33.2419 105.025 35.9621C105.75 38.6822 107.369 41.0798 109.62 42.7701L115.52 47.2601L108.76 44.2601C106.187 43.0992 103.298 42.8369 100.558 43.5151C97.8173 44.1934 95.3845 45.7729 93.6498 48.0001L89.2398 53.7801L92.2398 47.1101C93.3542 44.5238 93.5657 41.6378 92.84 38.9167C92.1144 36.1957 90.494 33.7981 88.2398 32.1101L82.3398 27.6201L89.0998 30.6201C91.6708 31.7795 94.5567 32.0421 97.2947 31.3657C100.033 30.6894 102.464 29.1133 104.2 26.8901L108.57 21.1001Z" fill="#000AC4"/>
<path d="M95.92 114.49C96.3169 114.24 96.7762 114.108 97.245 114.108C97.7138 114.108 98.173 114.24 98.57 114.49L123 128.56C123.615 128.922 124.316 129.113 125.03 129.113C125.744 129.113 126.445 128.922 127.06 128.56L141.69 120.14L101.19 96.7899C98.8416 95.4164 96.1705 94.6917 93.45 94.6899H93.19C90.561 94.7554 87.9912 95.4835 85.7186 96.8069C83.4461 98.1302 81.5444 100.006 80.19 102.26C78.7406 104.678 77.9702 107.441 77.96 110.26V156.96L92.59 148.54C93.198 148.177 93.7018 147.663 94.0523 147.048C94.4028 146.433 94.588 145.738 94.59 145.03V116.85C94.5839 116.37 94.7081 115.896 94.9493 115.481C95.1905 115.065 95.5398 114.723 95.96 114.49" fill="#000AC4"/>
<path d="M54.35 42.43C53.9516 42.6803 53.4906 42.8131 53.02 42.8131C52.5495 42.8131 52.0885 42.6803 51.69 42.43L27.23 28.36C26.6149 27.9977 25.914 27.8066 25.2 27.8066C24.4861 27.8066 23.7852 27.9977 23.17 28.36L8.54004 36.78L49 60.09C51.4346 61.4839 54.1947 62.2085 57 62.19C59.6345 62.1591 62.2144 61.4348 64.48 60.09C66.7738 58.7901 68.6794 56.9019 70 54.62C71.4439 52.2001 72.2139 49.4379 72.23 46.62V0L57.68 8.43C57.0721 8.79025 56.5682 9.30221 56.2176 9.91575C55.867 10.5293 55.6818 11.2234 55.68 11.93V40.12C55.6805 40.5821 55.5632 41.0366 55.3392 41.4408C55.1153 41.8449 54.792 42.1854 54.4 42.43" fill="#000AC4"/>
<path d="M98.1899 70.91C96.9234 73.2321 96.2598 75.8349 96.2598 78.48C96.2598 81.1251 96.9234 83.7278 98.1899 86.05C99.5405 88.5314 101.551 90.5907 104 92L144.46 115.44V98.5C144.462 97.7913 144.278 97.0944 143.927 96.4786C143.577 95.8628 143.071 95.3496 142.46 94.99L118.07 80.88C117.654 80.6432 117.308 80.3006 117.068 79.887C116.827 79.4734 116.701 79.0034 116.701 78.525C116.701 78.0465 116.827 77.5766 117.068 77.163C117.308 76.7493 117.654 76.4067 118.07 76.17L142.45 62.1C143.067 61.7436 143.581 61.2324 143.94 60.6169C144.3 60.0014 144.493 59.3028 144.5 58.59V41.74L104 65.1C101.532 66.4344 99.5012 68.4515 98.1499 70.91" fill="#000AC4"/>
<path d="M51.9999 86.0001C53.2664 83.678 53.93 81.0752 53.93 78.4301C53.93 75.785 53.2664 73.1823 51.9999 70.8601C50.6364 68.3987 48.6277 66.3554 46.1899 64.9501L5.75993 41.6101V58.4701C5.75359 59.1783 5.9354 59.8755 6.28679 60.4905C6.63818 61.1054 7.14655 61.616 7.75993 61.9701L32.1499 76.0901C32.5659 76.3254 32.912 76.667 33.1528 77.0799C33.3936 77.4928 33.5205 77.9622 33.5205 78.4401C33.5205 78.9181 33.3936 79.3875 33.1528 79.8003C32.912 80.2132 32.5659 80.5548 32.1499 80.7901L7.76993 94.8601C7.16255 95.2235 6.6593 95.7375 6.30891 96.3524C5.95852 96.9674 5.77286 97.6624 5.76993 98.3701V115.22L46.1799 91.8701C48.6364 90.5037 50.6546 88.4682 51.9999 86.0001Z" fill="#000AC4"/>
<path d="M23.17 128.56C23.7852 128.922 24.4861 129.113 25.2 129.113C25.914 129.113 26.6149 128.922 27.23 128.56L51.57 114.49C51.967 114.24 52.4262 114.108 52.895 114.108C53.3638 114.108 53.8231 114.24 54.22 114.49C54.6288 114.723 54.9699 115.059 55.21 115.464C55.4502 115.869 55.5811 116.329 55.59 116.8V145C55.5819 145.71 55.7629 146.409 56.1144 147.026C56.4658 147.643 56.9752 148.155 57.59 148.51L72.22 156.93V110.23C72.2347 107.409 71.4661 104.64 70 102.23C68.6183 99.9796 66.7101 98.0989 64.44 96.7499C62.0908 95.3794 59.4198 94.6572 56.7 94.6572C53.9803 94.6572 51.3093 95.3794 48.96 96.7499L8.54004 120.05L23.17 128.56Z" fill="#000AC4"/>
</svg>
