<svg width="122" height="93" viewBox="0 0 122 93" fill="none" xmlns="http://www.w3.org/2000/svg">
<path d="M4.1718 57.4561L6.43074 53.2324L15.132 53.0655C22.1589 52.9308 23.93 52.746 24.336 52.1049C24.6125 51.6682 24.8424 46.0135 24.8468 39.536L24.855 27.761H30.4326H36.0101V41.7069C36.0101 55.2982 35.9797 55.6974 34.8149 57.4024C34.1576 58.3647 32.9454 59.6502 32.1212 60.2591C30.7013 61.3081 29.8692 61.3744 16.2678 61.523L1.91286 61.6799L4.1718 57.4561Z" fill="#FF0000"/>
<path d="M39.7289 44.6959V27.761H56.349C72.5296 27.761 73.0318 27.7925 75.3351 28.9517C82.3469 32.4808 83.9336 45.3558 78.0134 50.6844C75.4385 53.0021 73.8175 53.2705 63.6756 53.0587L56.0161 52.8987L53.7157 49.0169C52.4504 46.8818 51.4152 45.0362 51.4152 44.9154C51.4152 44.7947 55.2398 44.6959 59.9144 44.6959C67.7053 44.6959 68.5021 44.6077 69.4759 43.6374C70.9248 42.194 70.9177 38.7232 69.4629 37.2738C68.4581 36.2728 67.8204 36.2119 59.7685 36.3477L51.1496 36.493L51.0072 49.0619L50.8648 61.6308H45.2968H39.7289L39.7289 44.6959Z" fill="#FF0000"/>
<path d="M87.6417 60.7455C84.475 59.1907 84.3492 58.4878 84.3492 42.3407V27.761H89.3858H94.4224L94.565 40.0652L94.7076 52.3695L104.137 52.514L113.566 52.6585L115.69 56.8683C116.859 59.1837 117.815 61.2024 117.815 61.3544C117.815 61.5064 111.42 61.6253 103.605 61.6187C91.5701 61.6085 89.1272 61.4749 87.6417 60.7455Z" fill="#FF0000"/>
</svg>
