<svg width="111" height="93" viewBox="0 0 111 93" fill="none" xmlns="http://www.w3.org/2000/svg">
<path d="M50.549 85.2509C72.7177 85.2509 90.689 67.2797 90.689 45.1109C90.689 22.9422 72.7177 4.97095 50.549 4.97095C28.3803 4.97095 10.409 22.9422 10.409 45.1109C10.409 67.2797 28.3803 85.2509 50.549 85.2509Z" fill="#0B3D91"/>
<path d="M48.179 13.131C48.4275 13.131 48.629 12.9295 48.629 12.681C48.629 12.4324 48.4275 12.231 48.179 12.231C47.9305 12.231 47.729 12.4324 47.729 12.681C47.729 12.9295 47.9305 13.131 48.179 13.131Z" fill="white"/>
<path d="M52.799 13.7308C53.0475 13.7308 53.249 13.5293 53.249 13.2808C53.249 13.0323 53.0475 12.8308 52.799 12.8308C52.5505 12.8308 52.349 13.0323 52.349 13.2808C52.349 13.5293 52.5505 13.7308 52.799 13.7308Z" fill="white"/>
<path d="M58.859 21.8907C59.1075 21.8907 59.309 21.6893 59.309 21.4407C59.309 21.1922 59.1075 20.9907 58.859 20.9907C58.6105 20.9907 58.409 21.1922 58.409 21.4407C58.409 21.6893 58.6105 21.8907 58.859 21.8907Z" fill="white"/>
<path d="M25.619 63.8907C25.8675 63.8907 26.069 63.6893 26.069 63.4407C26.069 63.1922 25.8675 62.9907 25.619 62.9907C25.3705 62.9907 25.169 63.1922 25.169 63.4407C25.169 63.6893 25.3705 63.8907 25.619 63.8907Z" fill="white"/>
<path d="M26.789 67.4908C27.0375 67.4908 27.239 67.2893 27.239 67.0408C27.239 66.7923 27.0375 66.5908 26.789 66.5908C26.5405 66.5908 26.339 66.7923 26.339 67.0408C26.339 67.2893 26.5405 67.4908 26.789 67.4908Z" fill="white"/>
<path d="M21.209 64.3178C21.3951 64.3178 21.546 64.1669 21.546 63.9808C21.546 63.7947 21.3951 63.6438 21.209 63.6438C21.0229 63.6438 20.872 63.7947 20.872 63.9808C20.872 64.1669 21.0229 64.3178 21.209 64.3178Z" fill="white"/>
<path d="M39.509 71.3908C39.6957 71.3908 39.847 71.2395 39.847 71.0528C39.847 70.8662 39.6957 70.7148 39.509 70.7148C39.3223 70.7148 39.171 70.8662 39.171 71.0528C39.171 71.2395 39.3223 71.3908 39.509 71.3908Z" fill="white"/>
<path d="M68.211 65.4279C68.3971 65.4279 68.548 65.277 68.548 65.0909C68.548 64.9048 68.3971 64.7539 68.211 64.7539C68.0249 64.7539 67.874 64.9048 67.874 65.0909C67.874 65.277 68.0249 65.4279 68.211 65.4279Z" fill="white"/>
<path d="M76.552 56.3689C76.7387 56.3689 76.89 56.2175 76.89 56.0309C76.89 55.8442 76.7387 55.6929 76.552 55.6929C76.3653 55.6929 76.214 55.8442 76.214 56.0309C76.214 56.2175 76.3653 56.3689 76.552 56.3689Z" fill="white"/>
<path d="M35.669 24.4098C35.8551 24.4098 36.006 24.259 36.006 24.0728C36.006 23.8867 35.8551 23.7358 35.669 23.7358C35.4829 23.7358 35.332 23.8867 35.332 24.0728C35.332 24.259 35.4829 24.4098 35.669 24.4098Z" fill="white"/>
<path d="M44.849 17.6679C45.0351 17.6679 45.186 17.517 45.186 17.3309C45.186 17.1448 45.0351 16.9939 44.849 16.9939C44.6629 16.9939 44.512 17.1448 44.512 17.3309C44.512 17.517 44.6629 17.6679 44.849 17.6679Z" fill="white"/>
<path d="M43.852 17.0077C44.0381 17.0077 44.189 16.8569 44.189 16.6707C44.189 16.4846 44.0381 16.3337 43.852 16.3337C43.6659 16.3337 43.515 16.4846 43.515 16.6707C43.515 16.8569 43.6659 17.0077 43.852 17.0077Z" fill="white"/>
<path d="M42.952 16.3478C43.1381 16.3478 43.289 16.1969 43.289 16.0108C43.289 15.8247 43.1381 15.6738 42.952 15.6738C42.7659 15.6738 42.615 15.8247 42.615 16.0108C42.615 16.1969 42.7659 16.3478 42.952 16.3478Z" fill="white"/>
<path d="M37.109 26.1508C37.2951 26.1508 37.446 25.9999 37.446 25.8138C37.446 25.6277 37.2951 25.4768 37.109 25.4768C36.9229 25.4768 36.772 25.6277 36.772 25.8138C36.772 25.9999 36.9229 26.1508 37.109 26.1508Z" fill="white"/>
<path d="M50.631 8.60784C50.8171 8.60784 50.968 8.45696 50.968 8.27084C50.968 8.08472 50.8171 7.93384 50.631 7.93384C50.4449 7.93384 50.294 8.08472 50.294 8.27084C50.294 8.45696 50.4449 8.60784 50.631 8.60784Z" fill="white"/>
<path d="M52.852 18.3278C53.0381 18.3278 53.189 18.1769 53.189 17.9908C53.189 17.8047 53.0381 17.6538 52.852 17.6538C52.6659 17.6538 52.515 17.8047 52.515 17.9908C52.515 18.1769 52.6659 18.3278 52.852 18.3278Z" fill="white"/>
<path d="M49.349 16.4299C49.5351 16.4299 49.686 16.279 49.686 16.0929C49.686 15.9067 49.5351 15.7559 49.349 15.7559C49.1629 15.7559 49.012 15.9067 49.012 16.0929C49.012 16.279 49.1629 16.4299 49.349 16.4299Z" fill="white"/>
<path d="M43.349 19.0109C43.5351 19.0109 43.686 18.86 43.686 18.6739C43.686 18.4878 43.5351 18.3369 43.349 18.3369C43.1629 18.3369 43.012 18.4878 43.012 18.6739C43.012 18.86 43.1629 19.0109 43.349 19.0109Z" fill="white"/>
<path d="M69.809 74.3307C69.9951 74.3307 70.146 74.1799 70.146 73.9937C70.146 73.8076 69.9951 73.6567 69.809 73.6567C69.6229 73.6567 69.472 73.8076 69.472 73.9937C69.472 74.1799 69.6229 74.3307 69.809 74.3307Z" fill="white"/>
<path d="M25.049 66.0588C25.2357 66.0588 25.387 65.9075 25.387 65.7208C25.387 65.5341 25.2357 65.3828 25.049 65.3828C24.8623 65.3828 24.711 65.5341 24.711 65.7208C24.711 65.9075 24.8623 66.0588 25.049 66.0588Z" fill="white"/>
<path d="M48.509 70.4089C48.6957 70.4089 48.847 70.2576 48.847 70.0709C48.847 69.8842 48.6957 69.7329 48.509 69.7329C48.3223 69.7329 48.171 69.8842 48.171 70.0709C48.171 70.2576 48.3223 70.4089 48.509 70.4089Z" fill="white"/>
<path d="M32.031 65.7888C32.2177 65.7888 32.369 65.6375 32.369 65.4508C32.369 65.2641 32.2177 65.1128 32.031 65.1128C31.8443 65.1128 31.693 65.2641 31.693 65.4508C31.693 65.6375 31.8443 65.7888 32.031 65.7888Z" fill="white"/>
<path d="M34.949 70.5517C35.1357 70.5517 35.287 70.4004 35.287 70.2137C35.287 70.0271 35.1357 69.8757 34.949 69.8757C34.7623 69.8757 34.611 70.0271 34.611 70.2137C34.611 70.4004 34.7623 70.5517 34.949 70.5517Z" fill="white"/>
<path d="M56.429 67.551C56.6151 67.551 56.766 67.4001 56.766 67.214C56.766 67.0278 56.6151 66.877 56.429 66.877C56.2429 66.877 56.092 67.0278 56.092 67.214C56.092 67.4001 56.2429 67.551 56.429 67.551Z" fill="white"/>
<path d="M68.271 60.8678C68.4571 60.8678 68.608 60.717 68.608 60.5308C68.608 60.3447 68.4571 60.1938 68.271 60.1938C68.0849 60.1938 67.934 60.3447 67.934 60.5308C67.934 60.717 68.0849 60.8678 68.271 60.8678Z" fill="white"/>
<path d="M77.249 64.9699C77.4351 64.9699 77.586 64.819 77.586 64.6329C77.586 64.4468 77.4351 64.2959 77.249 64.2959C77.0629 64.2959 76.912 64.4468 76.912 64.6329C76.912 64.819 77.0629 64.9699 77.249 64.9699Z" fill="white"/>
<path d="M80.309 66.9279C80.4951 66.9279 80.646 66.777 80.646 66.5909C80.646 66.4048 80.4951 66.2539 80.309 66.2539C80.1229 66.2539 79.972 66.4048 79.972 66.5909C79.972 66.777 80.1229 66.9279 80.309 66.9279Z" fill="white"/>
<path d="M80.812 61.5878C80.9981 61.5878 81.149 61.4369 81.149 61.2508C81.149 61.0647 80.9981 60.9138 80.812 60.9138C80.6259 60.9138 80.475 61.0647 80.475 61.2508C80.475 61.4369 80.6259 61.5878 80.812 61.5878Z" fill="white"/>
<path d="M36.171 54.0278C36.3571 54.0278 36.508 53.8769 36.508 53.6908C36.508 53.5046 36.3571 53.3538 36.171 53.3538C35.9849 53.3538 35.834 53.5046 35.834 53.6908C35.834 53.8769 35.9849 54.0278 36.171 54.0278Z" fill="white"/>
<path d="M36.299 61.881C36.5475 61.881 36.749 61.6795 36.749 61.431C36.749 61.1824 36.5475 60.981 36.299 60.981C36.0505 60.981 35.849 61.1824 35.849 61.431C35.849 61.6795 36.0505 61.881 36.299 61.881Z" fill="white"/>
<path d="M38.999 67.5809C39.2475 67.5809 39.449 67.3794 39.449 67.1309C39.449 66.8824 39.2475 66.6809 38.999 66.6809C38.7505 66.6809 38.549 66.8824 38.549 67.1309C38.549 67.3794 38.7505 67.5809 38.999 67.5809Z" fill="white"/>
<path d="M71.339 61.6407C71.5875 61.6407 71.789 61.4393 71.789 61.1907C71.789 60.9422 71.5875 60.7407 71.339 60.7407C71.0905 60.7407 70.889 60.9422 70.889 61.1907C70.889 61.4393 71.0905 61.6407 71.339 61.6407Z" fill="white"/>
<path d="M82.979 60.9808C83.2275 60.9808 83.429 60.7793 83.429 60.5308C83.429 60.2823 83.2275 60.0808 82.979 60.0808C82.7305 60.0808 82.529 60.2823 82.529 60.5308C82.529 60.7793 82.7305 60.9808 82.979 60.9808Z" fill="white"/>
<path d="M77.219 58.5209C77.4675 58.5209 77.669 58.3194 77.669 58.0709C77.669 57.8223 77.4675 57.6208 77.219 57.6208C76.9705 57.6208 76.769 57.8223 76.769 58.0709C76.769 58.3194 76.9705 58.5209 77.219 58.5209Z" fill="white"/>
<path d="M71.339 58.7608C71.5875 58.7608 71.789 58.5594 71.789 58.3108C71.789 58.0623 71.5875 57.8608 71.339 57.8608C71.0905 57.8608 70.889 58.0623 70.889 58.3108C70.889 58.5594 71.0905 58.7608 71.339 58.7608Z" fill="white"/>
<path d="M59.21 12.3989L60.329 12.2919L59.212 12.2289C59.177 12.0129 59.004 11.8439 58.786 11.8159L58.679 10.7019L58.615 11.8249C58.413 11.8699 58.258 12.0389 58.233 12.2489L57.089 12.3529L58.241 12.4149C58.283 12.6079 58.439 12.7589 58.635 12.7949L58.739 13.9429L58.8 12.7969C59.007 12.7619 59.171 12.6029 59.21 12.3989Z" fill="white"/>
<path d="M40.324 24.8569L41.443 24.7499L40.326 24.6869C40.292 24.4709 40.118 24.3019 39.9 24.2739L39.793 23.1599L39.73 24.2829C39.527 24.3279 39.372 24.4969 39.347 24.7069L38.203 24.8109L39.355 24.8729C39.397 25.0659 39.553 25.2169 39.749 25.2529L39.853 26.4009L39.915 25.2549C40.122 25.2209 40.286 25.0609 40.324 24.8569Z" fill="white"/>
<path d="M82.159 57.7949L83.278 57.6879L82.161 57.6249C82.127 57.4089 81.953 57.2399 81.735 57.2119L81.628 56.0979L81.565 57.2209C81.363 57.2659 81.208 57.4349 81.183 57.6449L80.039 57.7489L81.191 57.8109C81.233 58.0039 81.389 58.1549 81.585 58.1909L81.689 59.3389L81.751 58.1929C81.956 58.1589 82.12 57.9999 82.159 57.7949Z" fill="white"/>
<path d="M36.544 75.0168L37.663 74.9098L36.546 74.8468C36.511 74.6308 36.338 74.4618 36.12 74.4338L36.013 73.3208L35.95 74.4428C35.747 74.4878 35.592 74.6568 35.567 74.8668L34.423 74.9708L35.575 75.0328C35.617 75.2258 35.773 75.3778 35.969 75.4128L36.073 76.5608L36.135 75.4148C36.341 75.3808 36.506 75.2208 36.544 75.0168Z" fill="white"/>
<path d="M78.604 66.6169L79.723 66.5099L78.606 66.4469C78.572 66.2309 78.398 66.0619 78.18 66.0339L78.073 64.9199L78.01 66.0419C77.808 66.0869 77.653 66.2559 77.628 66.4659L76.484 66.5699L77.636 66.6319C77.678 66.8249 77.834 66.9759 78.03 67.0119L78.134 68.1599L78.196 67.0139C78.401 66.9809 78.566 66.8209 78.604 66.6169Z" fill="white"/>
<path d="M60.068 35.4958C55.401 37.3098 50.849 38.9288 47.008 40.1308C39.203 42.5748 17.848 49.1908 4.948 57.5308L6.028 57.9508C13.888 53.5108 18.997 52.1158 23.908 50.5708C29.248 48.8908 46.511 44.8508 54.328 42.6508C56.969 41.9078 60.062 40.9348 63.338 39.7508C62.576 38.6878 61.772 37.6218 60.926 36.5578C60.643 36.1988 60.356 35.8448 60.068 35.4958ZM65.77 43.3548C64.64 44.1178 63.693 44.7268 63.03 45.1108C59.19 47.3308 40.469 60.1108 36.21 63.0508C31.951 65.9908 20.13 77.1508 16.65 80.3908L16.53 81.7098C27.75 71.6298 31.27 69.1438 35.73 65.7508C41.25 61.5508 52.669 53.7808 56.55 51.2908C60.26 48.9108 63.606 46.7218 66.609 44.7188C66.56 44.6368 66.511 44.5548 66.462 44.4718C66.236 44.1008 66.005 43.7288 65.77 43.3548ZM83.309 24.8308C77.843 28.0348 69.228 31.9018 60.87 35.1828C61.07 35.4278 61.269 35.6748 61.467 35.9238C62.401 37.0998 63.282 38.2838 64.111 39.4688C70.681 37.0488 77.89 33.8008 83.61 29.8698C80.885 32.4518 71.876 39.1848 66.383 42.9378C66.666 43.3988 66.94 43.8598 67.205 44.3188C75.527 38.7498 81.127 34.6508 84.39 31.9098C88.89 28.1298 99.15 19.6698 103.05 8.32983C96.209 17.0308 88.121 22.0098 83.309 24.8308Z" fill="#FC3D21"/>
<path d="M45.384 55.0498C44.499 53.9358 43.275 52.4438 42.356 51.2868C41.127 49.7398 39.99 48.1768 38.948 46.6158C38.608 46.7008 38.269 46.7858 37.93 46.8708C39.188 48.8338 40.585 50.7938 42.107 52.7098C43.219 54.1098 44.23 55.2368 44.748 55.9378C44.853 56.0798 45.061 56.3938 45.342 56.8118C45.666 56.5918 45.993 56.3698 46.323 56.1458C46.004 55.7988 45.689 55.4338 45.384 55.0498ZM51.844 60.9138C51.117 60.2258 49.354 59.0768 47.519 57.3528C47.114 57.6308 46.705 57.9128 46.295 58.1968C47.48 59.8668 49.094 61.9178 50.358 62.5158C52.262 63.4178 52.775 61.7958 51.844 60.9138ZM61.467 35.9238C50.975 22.7178 38.158 15.4628 32.632 19.8538C28.34 23.2638 30.102 33.2298 36.018 43.6988C36.324 43.5938 36.627 43.4908 36.927 43.3888C30.956 33.1888 29.322 23.7098 33.37 20.4928C38.457 16.4508 50.74 23.7338 60.928 36.5568C63.037 39.2108 64.891 41.8748 66.461 44.4718C72.473 54.4218 74.318 63.4198 70.164 67.0928C68.893 68.2168 65.009 68.6578 59.921 66.3678C59.85 66.4568 59.964 66.6978 60.053 66.7568C64.445 68.5228 68.652 69.1958 70.776 67.5088C75.88 63.4528 71.959 49.1298 61.467 35.9238Z" fill="white"/>
<path d="M16.469 37.4907H23.189L28.829 47.0607C28.829 47.0607 28.829 40.1307 28.829 39.5907C28.829 38.7507 27.764 37.6557 27.389 37.4907C27.839 37.4907 31.769 37.4907 32.039 37.4907C31.754 37.5657 30.839 38.6757 30.839 39.5907C30.839 40.0407 30.839 50.0907 30.839 50.5707C30.839 51.2457 31.814 52.1757 32.279 52.5357H25.799L20.069 42.9207C20.069 42.9207 20.069 50.0907 20.069 50.4807C20.069 51.2307 20.804 51.9507 21.569 52.5657H16.619C17.324 52.2657 17.999 51.3207 18.059 50.5707C18.119 49.8207 18.059 40.1457 18.059 39.7257C18.059 38.8107 17.174 38.0607 16.469 37.4907Z" fill="white"/>
<path d="M77.939 52.5357H86.879C86.384 52.4157 85.829 51.8307 85.529 51.0507C85.229 50.2707 80.489 37.4907 80.489 37.4907H77.09C76.126 38.1847 75.093 38.9167 73.99 39.6877C73.987 39.7157 73.984 39.7437 73.979 39.7707C73.831 40.6707 71.171 50.3047 71.009 50.7807C70.784 51.4407 69.629 52.1757 69.164 52.5657H73.979C73.499 52.0257 73.109 51.5007 73.199 50.9007C73.289 50.3007 73.559 49.1007 73.559 49.1007H78.539C78.764 49.7007 78.932 50.2397 79.019 50.7507C79.124 51.3657 78.494 52.0557 77.939 52.5357ZM74.009 47.1807L75.689 41.6907L77.909 47.1807H74.009ZM73.252 38.0387C73.499 37.8567 73.747 37.6737 73.994 37.4907H72.689C72.819 37.6107 73.034 37.7997 73.252 38.0387Z" fill="white"/>
<path d="M39.059 50.9007C39.149 50.3007 39.419 49.1007 39.419 49.1007H44.399C44.624 49.7007 44.792 50.2397 44.879 50.7507C44.984 51.3657 44.354 52.0557 43.799 52.5357H51.67C51.834 52.4257 51.997 52.3157 52.16 52.2067C51.855 51.9367 51.574 51.5317 51.389 51.0507C51.089 50.2707 46.349 37.4907 46.349 37.4907H38.549C38.924 37.8357 40.004 38.7657 39.839 39.7707C39.692 40.6707 37.031 50.3047 36.869 50.7807C36.644 51.4407 35.489 52.1757 35.024 52.5657H39.839C39.359 52.0257 38.969 51.5007 39.059 50.9007ZM41.549 41.6907L43.769 47.1807H39.869L41.549 41.6907Z" fill="white"/>
<path d="M66.248 44.9588C64.78 45.9368 63.231 46.9578 61.599 48.0238C62.331 48.3788 62.914 48.8248 62.97 49.4008C63.074 50.4828 60.9 51.0058 58.935 50.7808C58.542 50.7358 58.156 50.6328 57.788 50.4948C57.38 50.7578 56.968 51.0228 56.55 51.2908C56.125 51.5638 55.609 51.8998 55.02 52.2878V53.8408C55.41 53.0758 56.263 52.3908 56.925 52.3558C57.21 52.3408 58.2 53.2558 62.28 53.0308C64.26 52.9218 68.085 50.8108 68.025 48.3808C67.989 46.9448 67.239 45.8248 66.248 44.9588ZM55.019 48.7108V50.2928C55.38 50.0518 55.736 49.8148 56.085 49.5838C55.536 49.2018 55.147 48.8448 55.019 48.7108ZM64.853 43.9658C64.473 43.7408 64.088 43.5438 63.719 43.3698C61.799 42.4698 59.789 42.3048 59.369 41.0898C59.073 40.2328 59.909 39.4398 61.949 39.4698C63.989 39.4998 65.879 40.7148 66.389 41.1498V37.2798C66.239 37.4298 65.581 38.1848 64.979 38.0598C63.824 37.8198 61.859 37.5068 59.609 37.5198C57.029 37.5348 54.809 39.5288 54.734 42.0498C54.629 45.5748 57.449 46.5348 59.039 47.0898C59.203 47.1468 59.39 47.2078 59.593 47.2728C61.118 46.2808 62.324 45.5168 63.03 45.1098C63.504 44.8368 64.125 44.4448 64.853 43.9658Z" fill="white"/>
</svg>
