<svg width="394" height="221" viewBox="0 0 394 221" fill="none" xmlns="http://www.w3.org/2000/svg">
<g clip-path="url(#clip0_177_5379)">
<rect width="394" height="220" transform="translate(0 0.11084)" fill="#FBFBFB"/>
<g filter="url(#filter0_bd_177_5379)">
<g clip-path="url(#clip1_177_5379)">
<rect x="184" y="32.1108" width="178" height="230" rx="8" fill="#F4F4F4"/>
<rect x="200.5" y="48.6108" width="145" height="23" rx="3.5" fill="#DADADA"/>
<path opacity="0.7" d="M230.505 64.1108V55.3836H233.616C234.292 55.3836 234.853 55.5 235.299 55.733C235.748 55.966 236.083 56.2884 236.305 56.7003C236.526 57.1094 236.637 57.5824 236.637 58.1194C236.637 58.6535 236.525 59.1236 236.3 59.5299C236.079 59.9333 235.744 60.2472 235.295 60.4716C234.849 60.6961 234.288 60.8083 233.612 60.8083H231.255V59.6748H233.492C233.918 59.6748 234.265 59.6137 234.532 59.4915C234.802 59.3694 234.999 59.1918 235.124 58.9589C235.249 58.7259 235.312 58.4461 235.312 58.1194C235.312 57.7898 235.248 57.5043 235.12 57.2628C234.995 57.0214 234.798 56.8367 234.528 56.7089C234.261 56.5782 233.91 56.5128 233.475 56.5128H231.822V64.1108H230.505ZM234.813 60.1733L236.969 64.1108H235.469L233.356 60.1733H234.813ZM242.403 61.3964V57.5654H243.682V64.1108H242.429V62.9773H242.361C242.21 63.3267 241.969 63.6179 241.636 63.8509C241.307 64.081 240.896 64.1961 240.405 64.1961C239.984 64.1961 239.612 64.1037 239.288 63.9191C238.967 63.7316 238.714 63.4546 238.53 63.0881C238.348 62.7216 238.257 62.2685 238.257 61.7287V57.5654H239.531V61.5753C239.531 62.0214 239.655 62.3765 239.902 62.6407C240.149 62.9049 240.47 63.037 240.865 63.037C241.104 63.037 241.341 62.9773 241.577 62.858C241.815 62.7387 242.013 62.5583 242.169 62.3168C242.328 62.0753 242.406 61.7685 242.403 61.3964ZM246.788 60.2245V64.1108H245.514V57.5654H246.737V58.6307H246.818C246.968 58.2841 247.204 58.0057 247.525 57.7955C247.849 57.5853 248.257 57.4802 248.748 57.4802C249.194 57.4802 249.585 57.5739 249.92 57.7614C250.255 57.9461 250.515 58.2216 250.7 58.5881C250.885 58.9546 250.977 59.4077 250.977 59.9475V64.1108H249.703V60.1009C249.703 59.6265 249.579 59.2557 249.332 58.9887C249.085 58.7188 248.745 58.5839 248.314 58.5839C248.018 58.5839 247.755 58.6478 247.525 58.7756C247.298 58.9035 247.117 59.091 246.984 59.3381C246.853 59.5824 246.788 59.8779 246.788 60.2245ZM260.964 57.6762C260.918 57.2728 260.731 56.9603 260.401 56.7387C260.072 56.5142 259.657 56.402 259.157 56.402C258.799 56.402 258.489 56.4589 258.228 56.5725C257.967 56.6833 257.763 56.8367 257.619 57.0327C257.476 57.2259 257.405 57.4461 257.405 57.6932C257.405 57.9006 257.454 58.0796 257.55 58.2302C257.65 58.3807 257.779 58.5071 257.938 58.6094C258.1 58.7089 258.273 58.7927 258.458 58.8608C258.643 58.9262 258.82 58.9802 258.991 59.0228L259.843 59.2444C260.121 59.3125 260.407 59.4049 260.699 59.5214C260.992 59.6378 261.263 59.7912 261.513 59.9816C261.763 60.1719 261.965 60.4077 262.119 60.689C262.275 60.9702 262.353 61.3069 262.353 61.6989C262.353 62.1932 262.225 62.6321 261.969 63.0157C261.717 63.3992 261.349 63.7017 260.866 63.9233C260.386 64.1449 259.805 64.2557 259.123 64.2557C258.469 64.2557 257.904 64.152 257.427 63.9446C256.949 63.7373 256.576 63.4432 256.306 63.0625C256.036 62.679 255.887 62.2245 255.859 61.6989H257.18C257.205 62.0142 257.307 62.277 257.486 62.4873C257.668 62.6946 257.9 62.8495 258.181 62.9517C258.465 63.0512 258.776 63.1009 259.114 63.1009C259.486 63.1009 259.817 63.0427 260.107 62.9262C260.4 62.8069 260.63 62.6421 260.797 62.4319C260.965 62.2188 261.049 61.9702 261.049 61.6861C261.049 61.4276 260.975 61.216 260.827 61.0512C260.682 60.8864 260.485 60.75 260.235 60.6421C259.988 60.5341 259.708 60.439 259.395 60.3566L258.364 60.0753C257.665 59.885 257.111 59.6052 256.702 59.2358C256.296 58.8665 256.093 58.3779 256.093 57.7699C256.093 57.2671 256.229 56.8282 256.502 56.4532C256.775 56.0782 257.144 55.787 257.61 55.5796C258.076 55.3694 258.601 55.2642 259.187 55.2642C259.778 55.2642 260.299 55.3679 260.751 55.5753C261.205 55.7827 261.563 56.0682 261.824 56.4319C262.086 56.7927 262.222 57.2074 262.234 57.6762H260.964ZM263.944 64.1108V57.5654H265.218V64.1108H263.944ZM264.588 56.5554C264.366 56.5554 264.176 56.4816 264.017 56.3339C263.86 56.1833 263.782 56.0043 263.782 55.7969C263.782 55.5867 263.86 55.4077 264.017 55.26C264.176 55.1094 264.366 55.0341 264.588 55.0341C264.809 55.0341 264.998 55.1094 265.154 55.26C265.313 55.4077 265.393 55.5867 265.393 55.7969C265.393 56.0043 265.313 56.1833 265.154 56.3339C264.998 56.4816 264.809 56.5554 264.588 56.5554ZM267.052 64.1108V57.5654H268.275V58.6307H268.356C268.493 58.2699 268.716 57.9887 269.025 57.787C269.335 57.5824 269.706 57.4802 270.138 57.4802C270.575 57.4802 270.942 57.5824 271.237 57.787C271.535 57.9915 271.756 58.2728 271.898 58.6307H271.966C272.122 58.2813 272.371 58.0029 272.711 57.7955C273.052 57.5853 273.459 57.4802 273.93 57.4802C274.524 57.4802 275.008 57.6662 275.383 58.0384C275.761 58.4106 275.95 58.9716 275.95 59.7216V64.1108H274.676V59.841C274.676 59.3978 274.555 59.0767 274.314 58.8779C274.072 58.679 273.784 58.5796 273.449 58.5796C273.034 58.5796 272.711 58.7074 272.481 58.9631C272.251 59.216 272.136 59.5412 272.136 59.939V64.1108H270.866V59.76C270.866 59.4049 270.756 59.1194 270.534 58.9035C270.312 58.6875 270.024 58.5796 269.669 58.5796C269.427 58.5796 269.204 58.6435 269 58.7714C268.798 58.8964 268.635 59.0711 268.51 59.2955C268.388 59.5199 268.327 59.7799 268.327 60.0753V64.1108H267.052ZM281.924 61.3964V57.5654H283.203V64.1108H281.95V62.9773H281.882C281.731 63.3267 281.49 63.6179 281.157 63.8509C280.828 64.081 280.417 64.1961 279.926 64.1961C279.505 64.1961 279.133 64.1037 278.809 63.9191C278.488 63.7316 278.235 63.4546 278.051 63.0881C277.869 62.7216 277.778 62.2685 277.778 61.7287V57.5654H279.052V61.5753C279.052 62.0214 279.176 62.3765 279.423 62.6407C279.67 62.9049 279.991 63.037 280.386 63.037C280.624 63.037 280.862 62.9773 281.097 62.858C281.336 62.7387 281.534 62.5583 281.69 62.3168C281.849 62.0753 281.927 61.7685 281.924 61.3964ZM286.309 55.3836V64.1108H285.035V55.3836H286.309ZM290.048 64.2557C289.633 64.2557 289.258 64.179 288.923 64.0256C288.587 63.8694 288.322 63.6435 288.126 63.3481C287.933 63.0526 287.836 62.6904 287.836 62.2614C287.836 61.8921 287.907 61.5881 288.049 61.3495C288.191 61.1108 288.383 60.9219 288.624 60.7827C288.866 60.6435 289.136 60.5384 289.434 60.4674C289.732 60.3964 290.036 60.3424 290.346 60.3054C290.738 60.26 291.056 60.2231 291.301 60.1946C291.545 60.1634 291.722 60.1137 291.833 60.0455C291.944 59.9773 291.999 59.8665 291.999 59.7131V59.6833C291.999 59.3111 291.894 59.0228 291.684 58.8182C291.477 58.6137 291.167 58.5114 290.755 58.5114C290.326 58.5114 289.988 58.6066 289.741 58.7969C289.497 58.9844 289.328 59.1932 289.234 59.4233L288.036 59.1506C288.178 58.7529 288.386 58.4319 288.658 58.1875C288.934 57.9404 289.251 57.7614 289.609 57.6506C289.967 57.537 290.343 57.4802 290.738 57.4802C290.999 57.4802 291.276 57.5114 291.569 57.5739C291.864 57.6336 292.14 57.7444 292.396 57.9063C292.654 58.0682 292.866 58.2998 293.031 58.6009C293.195 58.8992 293.278 59.287 293.278 59.7642V64.1108H292.033V63.216H291.982C291.9 63.3807 291.776 63.5427 291.612 63.7017C291.447 63.8608 291.235 63.9929 290.977 64.0981C290.718 64.2032 290.408 64.2557 290.048 64.2557ZM290.325 63.233C290.677 63.233 290.978 63.1634 291.228 63.0242C291.481 62.885 291.673 62.7032 291.803 62.4787C291.937 62.2515 292.004 62.0086 292.004 61.75V60.9063C291.958 60.9517 291.87 60.9944 291.739 61.0341C291.612 61.0711 291.465 61.1037 291.301 61.1321C291.136 61.1577 290.975 61.1819 290.819 61.2046C290.663 61.2245 290.532 61.2415 290.427 61.2557C290.18 61.287 289.954 61.3395 289.749 61.4134C289.548 61.4873 289.386 61.5938 289.264 61.733C289.144 61.8694 289.085 62.0512 289.085 62.2785C289.085 62.5938 289.201 62.8324 289.434 62.9944C289.667 63.1535 289.964 63.233 290.325 63.233ZM298.15 57.5654V58.5881H294.575V57.5654H298.15ZM295.534 55.9972H296.808V62.189C296.808 62.4361 296.845 62.6222 296.919 62.7472C296.993 62.8694 297.088 62.9532 297.204 62.9986C297.324 63.0412 297.453 63.0625 297.592 63.0625C297.694 63.0625 297.784 63.0554 297.861 63.0412C297.937 63.027 297.997 63.0157 298.039 63.0071L298.27 64.0597C298.196 64.0881 298.091 64.1165 297.954 64.1449C297.818 64.1762 297.647 64.1932 297.443 64.1961C297.108 64.2017 296.795 64.1421 296.505 64.0171C296.216 63.8921 295.981 63.6989 295.802 63.4375C295.623 63.1762 295.534 62.8481 295.534 62.4532V55.9972ZM299.68 64.1108V57.5654H300.954V64.1108H299.68ZM300.323 56.5554C300.102 56.5554 299.911 56.4816 299.752 56.3339C299.596 56.1833 299.518 56.0043 299.518 55.7969C299.518 55.5867 299.596 55.4077 299.752 55.26C299.911 55.1094 300.102 55.0341 300.323 55.0341C300.545 55.0341 300.734 55.1094 300.89 55.26C301.049 55.4077 301.129 55.5867 301.129 55.7969C301.129 56.0043 301.049 56.1833 300.89 56.3339C300.734 56.4816 300.545 56.5554 300.323 56.5554ZM305.545 64.2429C304.931 64.2429 304.396 64.1023 303.939 63.8211C303.481 63.5398 303.126 63.1464 302.873 62.6407C302.62 62.135 302.494 61.5441 302.494 60.8679C302.494 60.189 302.62 59.5952 302.873 59.0867C303.126 58.5782 303.481 58.1833 303.939 57.902C304.396 57.6208 304.931 57.4802 305.545 57.4802C306.159 57.4802 306.694 57.6208 307.152 57.902C307.609 58.1833 307.964 58.5782 308.217 59.0867C308.47 59.5952 308.596 60.189 308.596 60.8679C308.596 61.5441 308.47 62.135 308.217 62.6407C307.964 63.1464 307.609 63.5398 307.152 63.8211C306.694 64.1023 306.159 64.2429 305.545 64.2429ZM305.549 63.1733C305.947 63.1733 306.277 63.0682 306.538 62.858C306.799 62.6478 306.993 62.3679 307.118 62.0185C307.245 61.6691 307.309 61.2841 307.309 60.8637C307.309 60.4461 307.245 60.0625 307.118 59.7131C306.993 59.3608 306.799 59.0782 306.538 58.8651C306.277 58.652 305.947 58.5455 305.549 58.5455C305.149 58.5455 304.816 58.652 304.552 58.8651C304.291 59.0782 304.096 59.3608 303.968 59.7131C303.843 60.0625 303.781 60.4461 303.781 60.8637C303.781 61.2841 303.843 61.6691 303.968 62.0185C304.096 62.3679 304.291 62.6478 304.552 62.858C304.816 63.0682 305.149 63.1733 305.549 63.1733ZM311.413 60.2245V64.1108H310.138V57.5654H311.361V58.6307H311.442C311.593 58.2841 311.829 58.0057 312.15 57.7955C312.474 57.5853 312.881 57.4802 313.373 57.4802C313.819 57.4802 314.21 57.5739 314.545 57.7614C314.88 57.9461 315.14 58.2216 315.325 58.5881C315.509 58.9546 315.602 59.4077 315.602 59.9475V64.1108H314.327V60.1009C314.327 59.6265 314.204 59.2557 313.957 58.9887C313.71 58.7188 313.37 58.5839 312.938 58.5839C312.643 58.5839 312.38 58.6478 312.15 58.7756C311.923 58.9035 311.742 59.091 311.609 59.3381C311.478 59.5824 311.413 59.8779 311.413 60.2245Z" fill="#0F0F0F"/>
<rect x="200.5" y="48.6108" width="145" height="23" rx="3.5" stroke="#BEBEBE"/>
<g opacity="0.5">
<rect x="200" y="83.1108" width="59" height="12" rx="4" fill="#282828"/>
</g>
<g opacity="0.5">
<rect x="200" y="134.111" width="59" height="12" rx="4" fill="#282828"/>
</g>
<g opacity="0.5">
<rect x="200" y="191.111" width="59" height="12" rx="4" fill="#282828"/>
</g>
<g opacity="0.32">
<rect x="322" y="134.111" width="24" height="12" rx="4" fill="#868686"/>
</g>
<g opacity="0.32">
<rect x="322" y="83.1108" width="24" height="12" rx="4" fill="#868686"/>
</g>
<g opacity="0.5">
<rect x="190" y="156.111" width="132" height="4" rx="2" fill="#868686"/>
</g>
<g opacity="0.7">
<rect x="200" y="156.111" width="57" height="4" rx="2" fill="#E1E4E8"/>
</g>
<rect x="330" y="150.111" width="16" height="16" rx="8" fill="#DBDBDB"/>
<path d="M338.002 150.111C339.7 150.111 341.354 150.652 342.725 151.655C344.095 152.659 345.11 154.072 345.624 155.69C346.138 157.309 346.123 159.049 345.583 160.659C345.042 162.269 344.003 163.665 342.616 164.644C341.229 165.624 339.566 166.138 337.868 166.11C336.17 166.082 334.525 165.514 333.171 164.489C331.817 163.464 330.824 162.035 330.336 160.408C329.849 158.782 329.891 157.042 330.458 155.441L332.685 156.229C332.285 157.358 332.255 158.584 332.599 159.73C332.943 160.876 333.642 161.884 334.597 162.606C335.551 163.328 336.71 163.728 337.907 163.748C339.103 163.767 340.275 163.406 341.252 162.715C342.23 162.025 342.962 161.041 343.343 159.906C343.725 158.772 343.735 157.546 343.373 156.405C343.011 155.264 342.295 154.268 341.329 153.562C340.364 152.855 339.198 152.473 338.001 152.473L338.002 150.111Z" fill="#282828"/>
<g opacity="0.32">
<rect x="322" y="191.111" width="24" height="12" rx="4" fill="#868686"/>
</g>
<g opacity="0.5">
<rect x="190" y="105.111" width="132" height="4" rx="2" fill="#868686"/>
</g>
<g opacity="0.7">
<rect x="200" y="105.111" width="122" height="4" rx="2" fill="#E1E4E8"/>
</g>
<rect x="330" y="99.1108" width="16" height="16" rx="8" fill="#127C10"/>
<path fill-rule="evenodd" clip-rule="evenodd" d="M342.676 103.374C343.083 103.747 343.11 104.379 342.737 104.787L337.237 110.787C337.048 110.993 336.78 111.111 336.5 111.111C336.22 111.111 335.952 110.993 335.763 110.787L333.263 108.059C332.89 107.652 332.917 107.02 333.324 106.646C333.731 106.273 334.364 106.301 334.737 106.708L336.5 108.631L341.263 103.435C341.636 103.028 342.269 103 342.676 103.374Z" fill="white"/>
<g opacity="0.5">
<rect x="200" y="216.111" width="122" height="4" rx="2" fill="#868686"/>
</g>
<g opacity="0.7">
<rect x="200" y="216.111" width="93" height="4" rx="2" fill="#EEB2B2"/>
</g>
<path d="M336.268 211.111C337.038 209.778 338.962 209.778 339.732 211.111L345.794 221.611C346.564 222.944 345.602 224.611 344.062 224.611H331.938C330.398 224.611 329.436 222.944 330.206 221.611L336.268 211.111Z" fill="#DB5139"/>
<path d="M338.993 214.838L338.808 219.838H337.189L337.004 214.838H338.993ZM337.998 222.224C337.724 222.224 337.488 222.129 337.292 221.937C337.097 221.743 337.002 221.507 337.004 221.23C337.002 220.96 337.097 220.729 337.292 220.538C337.488 220.346 337.724 220.25 337.998 220.25C338.259 220.25 338.488 220.346 338.687 220.538C338.888 220.729 338.99 220.96 338.993 221.23C338.99 221.415 338.942 221.583 338.847 221.734C338.755 221.884 338.634 222.003 338.485 222.093C338.336 222.181 338.173 222.224 337.998 222.224Z" fill="white"/>
<line x1="185" y1="122.611" x2="372" y2="122.611" stroke="#DBDBDB"/>
<line x1="185" y1="176.611" x2="372" y2="176.611" stroke="#DBDBDB"/>
</g>
<rect x="184.5" y="32.6108" width="177" height="229" rx="7.5" stroke="url(#paint0_linear_177_5379)"/>
</g>
<g filter="url(#filter1_bd_177_5379)">
<rect x="32" y="16.1108" width="180" height="230" rx="8" fill="#F4F4F4"/>
<g filter="url(#filter2_i_177_5379)">
<rect x="48" y="32.1108" width="148" height="24" rx="4" fill="#DADADA"/>
<path opacity="0.7" d="M64.8099 48.1108V39.3836H66.1267V46.9773H70.0812V48.1108H64.8099ZM74.3582 48.2429C73.7445 48.2429 73.209 48.1023 72.7516 47.8211C72.2942 47.5398 71.9391 47.1464 71.6863 46.6407C71.4335 46.135 71.307 45.5441 71.307 44.8679C71.307 44.189 71.4335 43.5952 71.6863 43.0867C71.9391 42.5782 72.2942 42.1833 72.7516 41.902C73.209 41.6208 73.7445 41.4802 74.3582 41.4802C74.9718 41.4802 75.5073 41.6208 75.9647 41.902C76.4221 42.1833 76.7772 42.5782 77.03 43.0867C77.2829 43.5952 77.4093 44.189 77.4093 44.8679C77.4093 45.5441 77.2829 46.135 77.03 46.6407C76.7772 47.1464 76.4221 47.5398 75.9647 47.8211C75.5073 48.1023 74.9718 48.2429 74.3582 48.2429ZM74.3624 47.1733C74.7602 47.1733 75.0897 47.0682 75.3511 46.858C75.6124 46.6478 75.8056 46.3679 75.9306 46.0185C76.0585 45.6691 76.1224 45.2841 76.1224 44.8637C76.1224 44.4461 76.0585 44.0625 75.9306 43.7131C75.8056 43.3608 75.6124 43.0782 75.3511 42.8651C75.0897 42.652 74.7602 42.5455 74.3624 42.5455C73.9619 42.5455 73.6295 42.652 73.3653 42.8651C73.1039 43.0782 72.9093 43.3608 72.7815 43.7131C72.6565 44.0625 72.594 44.4461 72.594 44.8637C72.594 45.2841 72.6565 45.6691 72.7815 46.0185C72.9093 46.3679 73.1039 46.6478 73.3653 46.858C73.6295 47.0682 73.9619 47.1733 74.3624 47.1733ZM80.8564 48.2557C80.4416 48.2557 80.0666 48.179 79.7314 48.0256C79.3961 47.8694 79.1305 47.6435 78.9345 47.3481C78.7413 47.0526 78.6447 46.6904 78.6447 46.2614C78.6447 45.8921 78.7157 45.5881 78.8578 45.3495C78.9998 45.1108 79.1916 44.9219 79.4331 44.7827C79.6745 44.6435 79.9444 44.5384 80.2427 44.4674C80.541 44.3964 80.845 44.3424 81.1547 44.3054C81.5467 44.26 81.8649 44.2231 82.1092 44.1946C82.3535 44.1634 82.5311 44.1137 82.6419 44.0455C82.7527 43.9773 82.8081 43.8665 82.8081 43.7131V43.6833C82.8081 43.3111 82.703 43.0228 82.4927 42.8182C82.2853 42.6137 81.9757 42.5114 81.5637 42.5114C81.1348 42.5114 80.7967 42.6066 80.5495 42.7969C80.3052 42.9844 80.1362 43.1932 80.0424 43.4233L78.845 43.1506C78.987 42.7529 79.1944 42.4319 79.4672 42.1875C79.7427 41.9404 80.0595 41.7614 80.4174 41.6506C80.7754 41.537 81.1518 41.4802 81.5467 41.4802C81.8081 41.4802 82.0851 41.5114 82.3777 41.5739C82.6731 41.6336 82.9487 41.7444 83.2044 41.9063C83.4629 42.0682 83.6745 42.2998 83.8393 42.6009C84.0041 42.8992 84.0865 43.287 84.0865 43.7642V48.1108H82.8422V47.216H82.791C82.7086 47.3807 82.5851 47.5427 82.4203 47.7017C82.2555 47.8608 82.0439 47.9929 81.7853 48.0981C81.5268 48.2032 81.2172 48.2557 80.8564 48.2557ZM81.1334 47.233C81.4856 47.233 81.7868 47.1634 82.0368 47.0242C82.2896 46.885 82.4814 46.7032 82.612 46.4787C82.7456 46.2515 82.8123 46.0086 82.8123 45.75V44.9063C82.7669 44.9517 82.6788 44.9944 82.5481 45.0341C82.4203 45.0711 82.274 45.1037 82.1092 45.1321C81.9444 45.1577 81.7839 45.1819 81.6277 45.2046C81.4714 45.2245 81.3407 45.2415 81.2356 45.2557C80.9885 45.287 80.7626 45.3395 80.5581 45.4134C80.3564 45.4873 80.1944 45.5938 80.0723 45.733C79.953 45.8694 79.8933 46.0512 79.8933 46.2785C79.8933 46.5938 80.0098 46.8324 80.2427 46.9944C80.4757 47.1535 80.7726 47.233 81.1334 47.233ZM88.3538 48.2387C87.8254 48.2387 87.3538 48.1037 86.9391 47.8339C86.5271 47.5611 86.2033 47.1733 85.9675 46.6705C85.7345 46.1648 85.6181 45.5583 85.6181 44.8509C85.6181 44.1435 85.736 43.5384 85.9717 43.0356C86.2104 42.5327 86.5371 42.1478 86.9519 41.8807C87.3666 41.6137 87.8368 41.4802 88.3624 41.4802C88.7686 41.4802 89.0953 41.5483 89.3425 41.6847C89.5925 41.8182 89.7857 41.9745 89.922 42.1535C90.0612 42.3324 90.1692 42.4901 90.2459 42.6265H90.3226V39.3836H91.5967V48.1108H90.3524V47.0924H90.2459C90.1692 47.2316 90.0584 47.3907 89.9135 47.5696C89.7715 47.7486 89.5754 47.9049 89.3254 48.0384C89.0754 48.1719 88.7516 48.2387 88.3538 48.2387ZM88.6351 47.152C89.0016 47.152 89.3112 47.0554 89.5641 46.8623C89.8198 46.6662 90.0129 46.3949 90.1436 46.0483C90.2771 45.7017 90.3439 45.2983 90.3439 44.8381C90.3439 44.3836 90.2786 43.9858 90.1479 43.6449C90.0172 43.304 89.8254 43.0384 89.5726 42.8481C89.3198 42.6577 89.0073 42.5625 88.6351 42.5625C88.2516 42.5625 87.932 42.662 87.6763 42.8608C87.4206 43.0597 87.2274 43.331 87.0967 43.6748C86.9689 44.0185 86.905 44.4063 86.905 44.8381C86.905 45.2756 86.9703 45.6691 87.101 46.0185C87.2317 46.3679 87.4249 46.6449 87.6806 46.8495C87.9391 47.0512 88.2573 47.152 88.6351 47.152ZM96.9333 39.3836H98.5313L101.31 46.1677H101.412L104.19 39.3836H105.788V48.1108H104.536V41.7955H104.455L101.881 48.0981H100.841L98.2671 41.7912H98.1862V48.1108H96.9333V39.3836ZM107.721 48.1108V41.5654H108.995V48.1108H107.721ZM108.364 40.5554C108.142 40.5554 107.952 40.4816 107.793 40.3339C107.637 40.1833 107.559 40.0043 107.559 39.7969C107.559 39.5867 107.637 39.4077 107.793 39.26C107.952 39.1094 108.142 39.0341 108.364 39.0341C108.586 39.0341 108.775 39.1094 108.931 39.26C109.09 39.4077 109.169 39.5867 109.169 39.7969C109.169 40.0043 109.09 40.1833 108.931 40.3339C108.775 40.4816 108.586 40.5554 108.364 40.5554ZM115.734 43.1634L114.579 43.3679C114.531 43.2202 114.454 43.0796 114.349 42.9461C114.246 42.8125 114.107 42.7032 113.931 42.6179C113.755 42.5327 113.535 42.4901 113.271 42.4901C112.91 42.4901 112.609 42.5711 112.367 42.733C112.126 42.8921 112.005 43.0981 112.005 43.3509C112.005 43.5696 112.086 43.7458 112.248 43.8793C112.41 44.0128 112.671 44.1222 113.032 44.2074L114.072 44.4461C114.674 44.5853 115.123 44.7998 115.418 45.0895C115.714 45.3793 115.862 45.7557 115.862 46.2188C115.862 46.6108 115.748 46.9603 115.521 47.2671C115.296 47.5711 114.982 47.8097 114.579 47.983C114.178 48.1563 113.714 48.2429 113.185 48.2429C112.452 48.2429 111.854 48.0867 111.391 47.7742C110.928 47.4589 110.644 47.0114 110.539 46.4319L111.771 46.2444C111.847 46.5654 112.005 46.8083 112.244 46.9731C112.482 47.135 112.793 47.216 113.177 47.216C113.595 47.216 113.928 47.1293 114.178 46.956C114.428 46.7799 114.553 46.5654 114.553 46.3125C114.553 46.108 114.477 45.9361 114.323 45.7969C114.173 45.6577 113.941 45.5526 113.629 45.4816L112.521 45.2387C111.91 45.0995 111.458 44.8779 111.166 44.5739C110.876 44.2699 110.731 43.885 110.731 43.4191C110.731 43.0327 110.839 42.6946 111.055 42.4049C111.271 42.1151 111.569 41.8892 111.95 41.7273C112.33 41.5625 112.766 41.4802 113.258 41.4802C113.965 41.4802 114.522 41.6336 114.928 41.9404C115.335 42.2444 115.603 42.652 115.734 43.1634ZM122.287 43.1634L121.132 43.3679C121.084 43.2202 121.007 43.0796 120.902 42.9461C120.8 42.8125 120.661 42.7032 120.485 42.6179C120.309 42.5327 120.088 42.4901 119.824 42.4901C119.463 42.4901 119.162 42.5711 118.921 42.733C118.679 42.8921 118.559 43.0981 118.559 43.3509C118.559 43.5696 118.64 43.7458 118.802 43.8793C118.963 44.0128 119.225 44.1222 119.586 44.2074L120.625 44.4461C121.228 44.5853 121.677 44.7998 121.972 45.0895C122.267 45.3793 122.415 45.7557 122.415 46.2188C122.415 46.6108 122.302 46.9603 122.074 47.2671C121.85 47.5711 121.536 47.8097 121.132 47.983C120.732 48.1563 120.267 48.2429 119.739 48.2429C119.006 48.2429 118.408 48.0867 117.945 47.7742C117.482 47.4589 117.198 47.0114 117.093 46.4319L118.324 46.2444C118.401 46.5654 118.559 46.8083 118.797 46.9731C119.036 47.135 119.347 47.216 119.73 47.216C120.148 47.216 120.482 47.1293 120.732 46.956C120.982 46.7799 121.107 46.5654 121.107 46.3125C121.107 46.108 121.03 45.9361 120.877 45.7969C120.726 45.6577 120.495 45.5526 120.182 45.4816L119.074 45.2387C118.463 45.0995 118.012 44.8779 117.719 44.5739C117.429 44.2699 117.284 43.885 117.284 43.4191C117.284 43.0327 117.392 42.6946 117.608 42.4049C117.824 42.1151 118.123 41.8892 118.503 41.7273C118.884 41.5625 119.32 41.4802 119.811 41.4802C120.519 41.4802 121.076 41.6336 121.482 41.9404C121.888 42.2444 122.157 42.652 122.287 43.1634ZM123.936 48.1108V41.5654H125.21V48.1108H123.936ZM124.58 40.5554C124.358 40.5554 124.168 40.4816 124.009 40.3339C123.852 40.1833 123.774 40.0043 123.774 39.7969C123.774 39.5867 123.852 39.4077 124.009 39.26C124.168 39.1094 124.358 39.0341 124.58 39.0341C124.801 39.0341 124.99 39.1094 125.146 39.26C125.305 39.4077 125.385 39.5867 125.385 39.7969C125.385 40.0043 125.305 40.1833 125.146 40.3339C124.99 40.4816 124.801 40.5554 124.58 40.5554ZM129.801 48.2429C129.188 48.2429 128.652 48.1023 128.195 47.8211C127.738 47.5398 127.382 47.1464 127.13 46.6407C126.877 46.135 126.75 45.5441 126.75 44.8679C126.75 44.189 126.877 43.5952 127.13 43.0867C127.382 42.5782 127.738 42.1833 128.195 41.902C128.652 41.6208 129.188 41.4802 129.801 41.4802C130.415 41.4802 130.951 41.6208 131.408 41.902C131.865 42.1833 132.22 42.5782 132.473 43.0867C132.726 43.5952 132.853 44.189 132.853 44.8679C132.853 45.5441 132.726 46.135 132.473 46.6407C132.22 47.1464 131.865 47.5398 131.408 47.8211C130.951 48.1023 130.415 48.2429 129.801 48.2429ZM129.806 47.1733C130.203 47.1733 130.533 47.0682 130.794 46.858C131.056 46.6478 131.249 46.3679 131.374 46.0185C131.502 45.6691 131.566 45.2841 131.566 44.8637C131.566 44.4461 131.502 44.0625 131.374 43.7131C131.249 43.3608 131.056 43.0782 130.794 42.8651C130.533 42.652 130.203 42.5455 129.806 42.5455C129.405 42.5455 129.073 42.652 128.809 42.8651C128.547 43.0782 128.353 43.3608 128.225 43.7131C128.1 44.0625 128.037 44.4461 128.037 44.8637C128.037 45.2841 128.1 45.6691 128.225 46.0185C128.353 46.3679 128.547 46.6478 128.809 46.858C129.073 47.0682 129.405 47.1733 129.806 47.1733ZM135.669 44.2245V48.1108H134.395V41.5654H135.618V42.6307H135.699C135.849 42.2841 136.085 42.0057 136.406 41.7955C136.73 41.5853 137.138 41.4802 137.629 41.4802C138.075 41.4802 138.466 41.5739 138.801 41.7614C139.136 41.9461 139.396 42.2216 139.581 42.5881C139.766 42.9546 139.858 43.4077 139.858 43.9475V48.1108H138.584V44.1009C138.584 43.6265 138.46 43.2557 138.213 42.9887C137.966 42.7188 137.626 42.5839 137.195 42.5839C136.899 42.5839 136.636 42.6478 136.406 42.7756C136.179 42.9035 135.999 43.091 135.865 43.3381C135.734 43.5824 135.669 43.8779 135.669 44.2245ZM145.085 39.3836H146.683L149.461 46.1677H149.563L152.342 39.3836H153.94V48.1108H152.687V41.7955H152.606L150.032 48.0981H148.992L146.419 41.7912H146.338V48.1108H145.085V39.3836ZM158.629 48.2429C158.015 48.2429 157.48 48.1023 157.023 47.8211C156.565 47.5398 156.21 47.1464 155.957 46.6407C155.704 46.135 155.578 45.5441 155.578 44.8679C155.578 44.189 155.704 43.5952 155.957 43.0867C156.21 42.5782 156.565 42.1833 157.023 41.902C157.48 41.6208 158.015 41.4802 158.629 41.4802C159.243 41.4802 159.778 41.6208 160.236 41.902C160.693 42.1833 161.048 42.5782 161.301 43.0867C161.554 43.5952 161.68 44.189 161.68 44.8679C161.68 45.5441 161.554 46.135 161.301 46.6407C161.048 47.1464 160.693 47.5398 160.236 47.8211C159.778 48.1023 159.243 48.2429 158.629 48.2429ZM158.633 47.1733C159.031 47.1733 159.361 47.0682 159.622 46.858C159.883 46.6478 160.077 46.3679 160.202 46.0185C160.329 45.6691 160.393 45.2841 160.393 44.8637C160.393 44.4461 160.329 44.0625 160.202 43.7131C160.077 43.3608 159.883 43.0782 159.622 42.8651C159.361 42.652 159.031 42.5455 158.633 42.5455C158.233 42.5455 157.9 42.652 157.636 42.8651C157.375 43.0782 157.18 43.3608 157.052 43.7131C156.927 44.0625 156.865 44.4461 156.865 44.8637C156.865 45.2841 156.927 45.6691 157.052 46.0185C157.18 46.3679 157.375 46.6478 157.636 46.858C157.9 47.0682 158.233 47.1733 158.633 47.1733ZM165.673 48.2387C165.144 48.2387 164.673 48.1037 164.258 47.8339C163.846 47.5611 163.522 47.1733 163.286 46.6705C163.053 46.1648 162.937 45.5583 162.937 44.8509C162.937 44.1435 163.055 43.5384 163.291 43.0356C163.529 42.5327 163.856 42.1478 164.271 41.8807C164.686 41.6137 165.156 41.4802 165.681 41.4802C166.088 41.4802 166.414 41.5483 166.661 41.6847C166.911 41.8182 167.105 41.9745 167.241 42.1535C167.38 42.3324 167.488 42.4901 167.565 42.6265H167.642V39.3836H168.916V48.1108H167.671V47.0924H167.565C167.488 47.2316 167.377 47.3907 167.232 47.5696C167.09 47.7486 166.894 47.9049 166.644 48.0384C166.394 48.1719 166.07 48.2387 165.673 48.2387ZM165.954 47.152C166.32 47.152 166.63 47.0554 166.883 46.8623C167.139 46.6662 167.332 46.3949 167.463 46.0483C167.596 45.7017 167.663 45.2983 167.663 44.8381C167.663 44.3836 167.597 43.9858 167.467 43.6449C167.336 43.304 167.144 43.0384 166.892 42.8481C166.639 42.6577 166.326 42.5625 165.954 42.5625C165.57 42.5625 165.251 42.662 164.995 42.8608C164.74 43.0597 164.546 43.331 164.416 43.6748C164.288 44.0185 164.224 44.4063 164.224 44.8381C164.224 45.2756 164.289 45.6691 164.42 46.0185C164.551 46.3679 164.744 46.6449 164.999 46.8495C165.258 47.0512 165.576 47.152 165.954 47.152ZM173.675 48.2429C173.03 48.2429 172.475 48.1052 172.009 47.8296C171.546 47.5512 171.188 47.1606 170.935 46.6577C170.685 46.152 170.56 45.5597 170.56 44.8807C170.56 44.2103 170.685 43.6194 170.935 43.108C171.188 42.5966 171.54 42.1975 171.992 41.9106C172.447 41.6236 172.978 41.4802 173.586 41.4802C173.955 41.4802 174.313 41.5412 174.66 41.6634C175.006 41.7856 175.317 41.9773 175.593 42.2387C175.868 42.5 176.086 42.8395 176.245 43.2571C176.404 43.6719 176.483 44.1762 176.483 44.7699V45.2216H171.28V44.2671H175.235C175.235 43.9319 175.167 43.635 175.03 43.3765C174.894 43.1151 174.702 42.9091 174.455 42.7586C174.211 42.608 173.924 42.5327 173.594 42.5327C173.236 42.5327 172.924 42.6208 172.657 42.7969C172.393 42.9702 172.188 43.1975 172.043 43.4787C171.901 43.7571 171.83 44.0597 171.83 44.3864V45.1321C171.83 45.5696 171.907 45.9418 172.06 46.2486C172.216 46.5554 172.434 46.7898 172.712 46.9517C172.991 47.1108 173.316 47.1904 173.688 47.1904C173.929 47.1904 174.15 47.1563 174.349 47.0881C174.547 47.0171 174.719 46.912 174.864 46.7728C175.009 46.6336 175.12 46.4617 175.197 46.2571L176.402 46.4745C176.306 46.8296 176.133 47.1407 175.883 47.4077C175.635 47.6719 175.324 47.8779 174.949 48.0256C174.577 48.1705 174.152 48.2429 173.675 48.2429ZM179.291 39.3836V48.1108H178.017V39.3836H179.291Z" fill="#0F0F0F"/>
<rect x="48.5" y="32.6108" width="147" height="23" rx="3.5" stroke="#BEBEBE"/>
</g>
<g opacity="0.5">
<rect x="48" y="80.1108" width="59" height="12" rx="4" fill="#282828"/>
</g>
<g opacity="0.32">
<rect x="176" y="80.1108" width="20" height="12" rx="4" fill="#868686"/>
</g>
<g opacity="0.5">
<rect x="48" y="108.111" width="69" height="12" rx="4" fill="#282828"/>
</g>
<g opacity="0.32">
<rect x="172" y="108.111" width="24" height="12" rx="4" fill="#868686"/>
</g>
<g opacity="0.5">
<rect x="48" y="136.111" width="54" height="12" rx="4" fill="#282828"/>
</g>
<g opacity="0.32">
<rect x="171" y="136.111" width="25" height="12" rx="4" fill="#868686"/>
</g>
<g opacity="0.5">
<rect x="48" y="164.111" width="56" height="12" rx="4" fill="#282828"/>
</g>
<g opacity="0.32">
<rect x="179" y="164.111" width="17" height="12" rx="4" fill="#868686"/>
</g>
<g opacity="0.5">
<rect x="48" y="192.111" width="75" height="12" rx="4" fill="#282828"/>
</g>
<g opacity="0.32">
<rect x="175" y="192.111" width="21" height="12" rx="4" fill="#868686"/>
</g>
<rect x="32.5" y="16.6108" width="179" height="229" rx="7.5" stroke="url(#paint1_linear_177_5379)"/>
</g>
</g>
<defs>
<filter id="filter0_bd_177_5379" x="168" y="20.1108" width="210" height="262" filterUnits="userSpaceOnUse" color-interpolation-filters="sRGB">
<feFlood flood-opacity="0" result="BackgroundImageFix"/>
<feGaussianBlur in="BackgroundImageFix" stdDeviation="2"/>
<feComposite in2="SourceAlpha" operator="in" result="effect1_backgroundBlur_177_5379"/>
<feColorMatrix in="SourceAlpha" type="matrix" values="0 0 0 0 0 0 0 0 0 0 0 0 0 0 0 0 0 0 127 0" result="hardAlpha"/>
<feOffset dy="4"/>
<feGaussianBlur stdDeviation="8"/>
<feComposite in2="hardAlpha" operator="out"/>
<feColorMatrix type="matrix" values="0 0 0 0 0 0 0 0 0 0 0 0 0 0 0 0 0 0 0.08 0"/>
<feBlend mode="normal" in2="effect1_backgroundBlur_177_5379" result="effect2_dropShadow_177_5379"/>
<feBlend mode="normal" in="SourceGraphic" in2="effect2_dropShadow_177_5379" result="shape"/>
</filter>
<filter id="filter1_bd_177_5379" x="16" y="4.11084" width="212" height="262" filterUnits="userSpaceOnUse" color-interpolation-filters="sRGB">
<feFlood flood-opacity="0" result="BackgroundImageFix"/>
<feGaussianBlur in="BackgroundImageFix" stdDeviation="2"/>
<feComposite in2="SourceAlpha" operator="in" result="effect1_backgroundBlur_177_5379"/>
<feColorMatrix in="SourceAlpha" type="matrix" values="0 0 0 0 0 0 0 0 0 0 0 0 0 0 0 0 0 0 127 0" result="hardAlpha"/>
<feOffset dy="4"/>
<feGaussianBlur stdDeviation="8"/>
<feComposite in2="hardAlpha" operator="out"/>
<feColorMatrix type="matrix" values="0 0 0 0 0 0 0 0 0 0 0 0 0 0 0 0 0 0 0.08 0"/>
<feBlend mode="normal" in2="effect1_backgroundBlur_177_5379" result="effect2_dropShadow_177_5379"/>
<feBlend mode="normal" in="SourceGraphic" in2="effect2_dropShadow_177_5379" result="shape"/>
</filter>
<filter id="filter2_i_177_5379" x="48" y="32.1108" width="148" height="24" filterUnits="userSpaceOnUse" color-interpolation-filters="sRGB">
<feFlood flood-opacity="0" result="BackgroundImageFix"/>
<feBlend mode="normal" in="SourceGraphic" in2="BackgroundImageFix" result="shape"/>
<feColorMatrix in="SourceAlpha" type="matrix" values="0 0 0 0 0 0 0 0 0 0 0 0 0 0 0 0 0 0 127 0" result="hardAlpha"/>
<feOffset/>
<feGaussianBlur stdDeviation="1"/>
<feComposite in2="hardAlpha" operator="arithmetic" k2="-1" k3="1"/>
<feColorMatrix type="matrix" values="0 0 0 0 0 0 0 0 0 0 0 0 0 0 0 0 0 0 0.25 0"/>
<feBlend mode="normal" in2="shape" result="effect1_innerShadow_177_5379"/>
</filter>
<linearGradient id="paint0_linear_177_5379" x1="273" y1="32.1108" x2="273" y2="262.111" gradientUnits="userSpaceOnUse">
<stop stop-color="#BEBEBE" stop-opacity="0.48"/>
<stop offset="0.239583" stop-color="#7C7C7C" stop-opacity="0.48"/>
<stop offset="1" stop-color="#5E5E5E" stop-opacity="0.2"/>
</linearGradient>
<linearGradient id="paint1_linear_177_5379" x1="122" y1="16.1108" x2="122" y2="246.111" gradientUnits="userSpaceOnUse">
<stop stop-color="#BEBEBE" stop-opacity="0.48"/>
<stop offset="0.239583" stop-color="#7C7C7C" stop-opacity="0.48"/>
<stop offset="1" stop-color="#5E5E5E" stop-opacity="0.2"/>
</linearGradient>
<clipPath id="clip0_177_5379">
<rect width="394" height="220" fill="white" transform="translate(0 0.11084)"/>
</clipPath>
<clipPath id="clip1_177_5379">
<rect x="184" y="32.1108" width="178" height="230" rx="8" fill="white"/>
</clipPath>
</defs>
</svg>
